<svg width="74" height="49" viewBox="0 0 74 49" fill="none" xmlns="http://www.w3.org/2000/svg">
<path fill-rule="evenodd" clip-rule="evenodd" d="M2.43109 34.6409H71.8757C72.8421 34.6409 73.632 35.4372 73.632 36.4115V46.669C73.632 47.643 72.8421 48.4393 71.8757 48.4393H2.43109C1.46509 48.4393 0.675232 47.643 0.675232 46.669V36.4115C0.675232 35.4372 1.46509 34.6409 2.43109 34.6409Z" fill="#FEFEFE"/>
<path d="M6.85502 38.2893C7.4172 38.2893 7.83581 38.4394 8.11008 38.7398C8.38473 39.0406 8.52148 39.4811 8.52148 40.0619V40.9942C8.52148 41.5749 8.38473 42.0159 8.11008 42.3159C7.83581 42.6167 7.41682 42.7667 6.85502 42.7667H6.32618V45.4617H5.20789V38.2893H6.85502ZM6.32618 39.3141V41.7423H6.85502C7.0308 41.7423 7.16642 41.6946 7.2615 41.5988C7.35659 41.5037 7.40394 41.3256 7.40394 41.0661V39.9903C7.40394 39.7308 7.35659 39.5535 7.2615 39.4573C7.1668 39.3618 7.0308 39.3141 6.85502 39.3141H6.32618ZM12.7943 45.4617H11.6657L11.4725 44.1604H10.1001L9.90723 45.4617H8.88023L10.0186 38.2893H11.6551L12.7939 45.4617H12.7943ZM10.2429 43.1872H11.3199L10.7816 39.5595L10.2425 43.1872H10.2429ZM14.5759 40.9839H15.1044C15.6669 40.9839 16.0855 41.134 16.3598 41.4347C16.6344 41.7355 16.7712 42.1757 16.7712 42.7565V43.6891C16.7712 44.2691 16.6344 44.7101 16.3598 45.0109C16.0855 45.3113 15.6665 45.4613 15.1044 45.4613H13.4576V38.289H16.4159V39.3137H14.5759V40.9839ZM15.1044 44.4369C15.2805 44.4369 15.4161 44.3892 15.5112 44.2938C15.6063 44.1979 15.6537 44.0206 15.6537 43.7607V42.6849C15.6537 42.4258 15.6063 42.2477 15.5112 42.1522C15.4165 42.0568 15.2805 42.0087 15.1044 42.0087H14.5759V44.4369H15.1044ZM18.604 43.8123C18.604 44.0714 18.6562 44.2543 18.7616 44.3604C18.8665 44.4661 19.007 44.5192 19.1832 44.5192C19.3593 44.5192 19.4999 44.4661 19.6044 44.3604C19.7098 44.2547 19.762 44.0718 19.762 43.8123V39.9388C19.762 39.6796 19.7098 39.4967 19.6044 39.3906C19.4999 39.2849 19.359 39.2319 19.1832 39.2319C19.0067 39.2319 18.8665 39.2849 18.7616 39.3906C18.6562 39.4963 18.604 39.6793 18.604 39.9388V43.8123ZM17.4857 40.0104C17.4857 39.43 17.6311 38.9841 17.9228 38.6735C18.2138 38.3625 18.6346 38.2071 19.1832 38.2071C19.7325 38.2071 20.1519 38.3625 20.4432 38.6735C20.7349 38.9841 20.8807 39.4296 20.8807 40.0104V43.7403C20.8807 44.3206 20.7349 44.7669 20.4432 45.0772C20.1519 45.3882 19.7321 45.5435 19.1832 45.5435C18.6343 45.5435 18.2138 45.3882 17.9228 45.0772C17.6311 44.7669 17.4857 44.321 17.4857 43.7403V40.0104ZM21.4425 38.2893H24.8985V39.3141H23.7295V45.4617H22.6116V39.3141H21.4425V38.2893ZM29.171 45.4617H28.0424L27.8492 44.1604H26.4767L26.2839 45.4617H25.2569L26.3953 38.2893H28.0322L29.1706 45.4617H29.171ZM26.6196 43.1872H27.6969L27.1583 39.5595L26.6192 43.1872H26.6196ZM30.9526 41.312H32.4876V42.3367H30.9526V44.4369H32.8838V45.4617H29.8343V38.2893H32.8838V39.3141H30.9526V41.3124V41.312ZM36.0785 43.3815L36.8411 38.289H38.3962V45.4613H37.3388V40.3176L36.5664 45.4613H35.5091L34.6757 40.3896V45.4613H33.6995V38.289H35.2553L36.0785 43.3815ZM40.5335 44.4369C40.5949 44.4438 40.6585 44.4476 40.7267 44.4476C40.7949 44.4476 40.8585 44.4476 40.9199 44.4476C41.0961 44.4476 41.2468 44.4025 41.3722 44.3142C41.4972 44.2256 41.5601 44.0411 41.5601 43.7607V38.289H45.0972V44.4366H45.667V46.2815H44.5286V45.4613H41.6719V46.2815H40.5335V44.4366V44.4369ZM42.6784 43.6789C42.6784 43.9797 42.6477 44.2324 42.5871 44.4369H43.9793V39.3137H42.6784V43.6785V43.6789ZM49.4204 39.3141H48.1195V43.6789C48.1195 44.0411 48.0752 44.3381 47.9869 44.5707C47.8994 44.8029 47.7805 44.9855 47.6312 45.1188C47.4823 45.2522 47.3111 45.3461 47.1179 45.4003C46.9251 45.4556 46.7231 45.4825 46.5133 45.4825C46.4121 45.4825 46.3201 45.4825 46.239 45.4825C46.1576 45.4825 46.0697 45.4753 45.975 45.4617V44.4369C46.036 44.4438 46.1003 44.4476 46.1678 44.4476C46.236 44.4476 46.3004 44.4476 46.361 44.4476C46.5375 44.4476 46.6883 44.4025 46.8137 44.3142C46.9387 44.2256 47.002 44.0411 47.002 43.7607V38.289H50.5391V45.4613H49.4208V39.3137L49.4204 39.3141ZM53.1227 39.3141C52.9261 39.3141 52.7825 39.372 52.6908 39.4879C52.5999 39.6042 52.554 39.7921 52.554 40.0516V40.7589C52.554 41.0457 52.6131 41.2438 52.7317 41.3533C52.8503 41.4624 53.0143 41.5173 53.2249 41.5173H53.6617V39.3141H53.1227ZM51.3032 45.4617C51.3577 45.3253 51.391 45.1904 51.4051 45.0571C51.4183 44.9241 51.4251 44.7684 51.4251 44.5908V43.4842C51.4251 43.1084 51.4778 42.789 51.5827 42.5261C51.6877 42.2636 51.8828 42.0738 52.1669 41.9571C51.6793 41.7249 51.4346 41.24 51.4346 40.5024V39.9384C51.4346 39.3853 51.5653 38.972 51.8263 38.6989C52.0873 38.4261 52.5093 38.2893 53.0916 38.2893H54.7793V45.4617H53.6614V42.5417H53.275C53.0174 42.5417 52.8313 42.6099 52.7158 42.7466C52.6006 42.883 52.5427 43.119 52.5427 43.4539V44.5809C52.5427 44.7241 52.5412 44.8434 52.5378 44.9396C52.5344 45.0351 52.5275 45.1135 52.5173 45.1757C52.5075 45.237 52.4953 45.2882 52.4817 45.3291C52.4684 45.3704 52.4544 45.4143 52.4412 45.4621H51.3024L51.3032 45.4617ZM59.0112 38.2893C59.5938 38.2893 60.0154 38.4261 60.2764 38.6989C60.5374 38.972 60.6681 39.3857 60.6681 39.9384V40.1945C60.6681 40.5634 60.6102 40.8676 60.495 41.1063C60.3802 41.3457 60.1969 41.5226 59.9461 41.6393C60.2507 41.7552 60.4662 41.945 60.5916 42.2079C60.7166 42.4712 60.7799 42.7936 60.7799 43.1766V43.7604C60.7799 44.3138 60.6375 44.7355 60.353 45.0256C60.0685 45.3158 59.6446 45.4609 59.0824 45.4609H57.3239V38.2886H59.0115L59.0112 38.2893ZM58.4418 42.2341V44.4373H59.082C59.2718 44.4373 59.4157 44.3862 59.5139 44.2835C59.612 44.1816 59.6608 43.9968 59.6608 43.7304V43.1054C59.6608 42.7705 59.6051 42.5417 59.4934 42.4189C59.3816 42.2962 59.1972 42.2341 58.9392 42.2341H58.4414H58.4418ZM58.4418 39.3141V41.2093H58.8786C59.0888 41.2093 59.2528 41.1548 59.3714 41.0453C59.49 40.9362 59.5495 40.7385 59.5495 40.4513V40.0513C59.5495 39.7921 59.5033 39.6043 59.4123 39.4876C59.321 39.3717 59.1767 39.3137 58.9805 39.3137H58.4418V39.3141ZM65.2042 45.4617H64.0757L63.8825 44.1604H62.51L62.3172 45.4617H61.2902L62.4286 38.2893H64.0651L65.2038 45.4617H65.2042ZM62.6528 43.1872H63.7298L63.1915 39.5595L62.6524 43.1872H62.6528ZM69.1001 42.7875V43.7403C69.1001 44.3206 68.9592 44.7669 68.6781 45.0772C68.3974 45.3882 67.9822 45.5435 67.4332 45.5435C66.8843 45.5435 66.4691 45.3882 66.188 45.0772C65.9069 44.7669 65.7668 44.321 65.7668 43.7403V40.0104C65.7668 39.43 65.9069 38.9841 66.188 38.6735C66.4691 38.3625 66.8847 38.2071 67.4332 38.2071C67.9825 38.2071 68.3974 38.3625 68.6781 38.6735C68.9592 38.9841 69.1001 39.4296 69.1001 40.0104V40.7074H68.0428V39.9388C68.0428 39.6796 67.9901 39.4967 67.8852 39.3906C67.7806 39.2849 67.6397 39.2319 67.4635 39.2319C67.2874 39.2319 67.1468 39.2849 67.0419 39.3906C66.9366 39.4963 66.8843 39.6793 66.8843 39.9388V43.8123C66.8843 44.0714 66.9366 44.2528 67.0419 44.3551C67.1468 44.4578 67.2874 44.5089 67.4635 44.5089C67.6397 44.5089 67.7806 44.4578 67.8852 44.3551C67.9901 44.2532 68.0428 44.0718 68.0428 43.8123V42.7875H69.1001Z" fill="#1685C4"/>
<path d="M15.0203 7.79149C15.0203 6.50386 14.8096 5.63407 14.3884 5.18213C13.9671 4.73019 13.4034 4.50403 12.6965 4.50403C11.9896 4.50403 11.4263 4.71656 11.0051 5.14084C10.5834 5.56551 10.3732 6.29854 10.3732 7.33955V10.4213H6.13336V7.62708C6.13336 5.29843 6.69782 3.51075 7.8252 2.26479C8.95297 1.01845 10.6175 0.394897 12.8189 0.394897C15.0206 0.394897 16.6848 1.01807 17.813 2.26479C18.9407 3.51075 19.5052 5.29843 19.5052 7.62708C19.5052 9.18861 19.2669 10.5994 18.7911 11.8597C18.3157 13.1197 17.7251 14.2698 17.0182 15.3112C16.3117 16.3522 15.5506 17.3042 14.7354 18.1672C13.9201 19.0302 13.1864 19.8522 12.5336 20.6326C11.8817 21.4133 11.3653 22.1873 10.9846 22.9544C10.6043 23.7215 10.4819 24.5296 10.6175 25.3785H19.0968V29.488H6.13336V25.9543C6.13336 24.5576 6.35119 23.3245 6.78571 22.2562C7.22022 21.1879 7.77065 20.2087 8.43663 19.3181C9.10261 18.4278 9.81594 17.5929 10.577 16.8114C11.3377 16.031 12.051 15.2021 12.717 14.3255C13.383 13.4485 13.9334 12.4897 14.3679 11.4491C14.8024 10.408 15.0203 9.18936 15.0203 7.79187V7.79149ZM21.8384 20.1598L29.9911 0.723719H34.8829V20.1598H37.0028V24.2689H34.8829V29.4877H30.3987V24.2689H21.838V20.1598H21.8384ZM30.3991 20.1598V9.51705L25.9559 20.1598H30.3991ZM49.4874 0.723719H53.3598L42.109 29.4877H38.2363L49.4874 0.723719ZM68.9834 0.723719V4.66844L62.3793 29.4877H57.8951L64.4587 4.83286H55.5313V0.723719H68.9834Z" fill="#FEFEFE"/>
</svg>
