<svg width="89" height="83" viewBox="0 0 89 83" fill="none" xmlns="http://www.w3.org/2000/svg">
<path fill-rule="evenodd" clip-rule="evenodd" d="M44.4585 30.5426L62.7206 41.2061L68.5655 37.7964L67.4151 37.1118V29.1866L75.27 33.8864L88.917 25.9348L44.4585 0V30.5426ZM65.9472 36.4799L57.9865 31.7142V23.789L65.9472 28.5547V36.4799ZM67.4151 19.5894L75.3758 24.3551V32.2803L67.4151 27.5146V19.5894ZM65.9472 26.8827L57.9865 22.117V14.1918L65.9472 18.9706V26.8827Z" fill="white"/>
<path fill-rule="evenodd" clip-rule="evenodd" d="M21.502 29.1865L13.5544 33.9522V41.8775L21.502 37.1118V29.1865Z" fill="white"/>
<path fill-rule="evenodd" clip-rule="evenodd" d="M22.9829 36.48L30.9304 31.7143V23.7891L22.9829 28.5548V36.48Z" fill="white"/>
<path fill-rule="evenodd" clip-rule="evenodd" d="M21.502 19.5889L13.5544 24.3546V32.2798L21.502 27.5141V19.5889Z" fill="white"/>
<path fill-rule="evenodd" clip-rule="evenodd" d="M22.9829 26.8824L30.9304 22.1167V14.1914L22.9829 18.9571V26.8824Z" fill="white"/>
<path fill-rule="evenodd" clip-rule="evenodd" d="M0 56.4771V25.9346L44.4585 51.8562V82.412L25.5352 71.3798V47.9858L13.5544 41.0874V64.3761L0 56.4771Z" fill="white"/>
</svg>
