<svg width="65" height="37" viewBox="0 0 65 37" fill="none" xmlns="http://www.w3.org/2000/svg">
<path fill-rule="evenodd" clip-rule="evenodd" d="M16.3514 11.1282L22.3968 14.717L24.3306 13.5692L23.9504 13.3372V10.6692L26.5472 12.2538L31.064 9.57253L16.3514 0.838867V11.1282ZM23.463 13.127L20.8297 11.5202V8.8522L23.463 10.459V13.127ZM23.9504 7.4365L26.5833 9.0433V11.7113L23.9504 10.1049V7.4365ZM23.463 9.89428L20.8297 8.28787V5.61988L23.463 7.22629V9.89428Z" fill="#FEFEFE"/>
<path fill-rule="evenodd" clip-rule="evenodd" d="M8.75671 10.6692L6.12335 12.2756V14.944L8.75671 13.3372V10.6692Z" fill="#FEFEFE"/>
<path fill-rule="evenodd" clip-rule="evenodd" d="M9.24365 13.1266L11.877 11.5202V8.85217L9.24365 10.4586V13.1266Z" fill="#FEFEFE"/>
<path fill-rule="evenodd" clip-rule="evenodd" d="M8.75671 7.43689L6.12335 9.0433V11.7113L8.75671 10.1045V7.43689Z" fill="#FEFEFE"/>
<path fill-rule="evenodd" clip-rule="evenodd" d="M9.24365 9.89427L11.877 8.28786V5.61987L9.24365 7.22628V9.89427Z" fill="#FEFEFE"/>
<path fill-rule="evenodd" clip-rule="evenodd" d="M1.63843 19.8615V9.57251L16.3514 18.3058V28.5955L10.091 24.8792V17.0001L6.12332 14.6788V22.524L1.63843 19.8615Z" fill="#FEFEFE"/>
<path fill-rule="evenodd" clip-rule="evenodd" d="M25.4313 24.3742L24.9444 25.2041V28.7223H23.6186V18.2594H24.9444V22.9269L27.4792 18.2594H28.8481L26.2302 23.0392L28.9241 28.7223H27.549L25.4313 24.3742ZM33.2138 23.1488C33.5692 23.2951 33.8653 23.5294 34.0577 23.8832C34.3006 24.3301 34.3809 24.8492 34.3809 25.3531V26.2185C34.3809 26.8791 34.2459 27.564 33.7908 28.0667C33.326 28.5799 32.6299 28.7223 31.9664 28.7223H29.5379V18.2594H31.9086C32.5267 18.2594 33.2391 18.3705 33.6752 18.8565C34.1 19.3299 34.2071 20.0159 34.2071 20.6313V21.1153C34.2071 21.574 34.1481 22.0751 33.9359 22.4877C33.7753 22.7994 33.5188 23.01 33.2138 23.1488ZM36.5347 26.6549L36.144 28.7223H34.9012L36.8781 18.2594H38.6769L40.6537 28.7223H39.3241L38.9333 26.6549H36.5347ZM46.3119 28.7223H42.3699V30.1302H41.0871V27.5125H41.7921C41.9349 27.3429 42.0338 27.1494 42.0812 26.9306C42.1394 26.6615 42.1704 26.3842 42.1871 26.1105L42.5833 18.2594H46.8419V27.5125H47.609V30.1302H46.3119V28.7223ZM49.7221 24.6753V28.7223H48.3963V18.2594H50.7091C51.3815 18.2594 52.0807 18.4126 52.5227 18.9633C52.9514 19.4976 53.0798 20.1953 53.0798 20.8657V22.0977C53.0798 22.7736 52.9537 23.5056 52.4823 24.0197C52.0086 24.5364 51.2927 24.6753 50.6222 24.6753H49.7221ZM55.0893 26.6549L54.6982 28.7223H53.4554L55.4327 18.2594H57.231L59.2079 28.7223H57.8786L57.4879 26.6549H55.0893ZM61.4218 19.4984H59.5548V18.2594H64.6147V19.4984H62.748V28.7223H61.4218V19.4984ZM30.8637 19.4984V22.6145H31.6339C31.9524 22.6145 32.3358 22.5677 32.5919 22.3583C32.8569 22.141 32.8957 21.666 32.8957 21.3497V20.7487C32.8957 20.4402 32.8573 20.0432 32.6629 19.7897C32.4805 19.5522 32.1604 19.4984 31.8799 19.4984H30.8637ZM30.8637 23.8539V27.4833H31.9664C32.7917 27.4833 33.0695 26.9626 33.0695 26.1888V25.2798C33.0695 24.9284 33.0276 24.4167 32.7595 24.1562C32.503 23.9073 32.0894 23.8539 31.7495 23.8539H30.8637ZM36.7171 25.474H38.7362L37.7135 20.1754L36.7171 25.474ZM43.135 27.5125H45.5014V19.4984H43.8124L43.4842 26.1062C43.4687 26.4123 43.4372 26.7387 43.3577 27.0359C43.3111 27.2103 43.2374 27.3698 43.135 27.5125ZM49.7221 19.4984V23.4503H50.6222C50.9268 23.4503 51.2706 23.3949 51.4925 23.1652C51.7265 22.9226 51.7684 22.4913 51.7684 22.1711V20.8072C51.7684 20.4808 51.7249 20.0799 51.5208 19.8116C51.3299 19.5604 51.0067 19.4984 50.7091 19.4984H49.7221ZM55.2716 25.474H57.2904L56.268 20.1754L55.2716 25.474Z" fill="#FEFEFE"/>
<path fill-rule="evenodd" clip-rule="evenodd" d="M3.03096 34.8016H1.50457L1.1705 35.7532H0.424377L0.472101 35.6206C0.603245 35.2552 0.735553 34.8898 0.870189 34.5259C0.988529 34.2057 1.10959 33.8867 1.23452 33.5696C1.34859 33.2795 1.46616 32.9909 1.58799 32.7042C1.70516 32.4293 1.82816 32.1567 1.9562 31.8864L1.98298 31.8298H2.57933L2.6061 31.8864C2.73414 32.1563 2.85675 32.4293 2.97392 32.7042C3.09576 32.9909 3.21371 33.2795 3.32778 33.5696C3.45272 33.8867 3.57338 34.2057 3.69172 34.5259C3.82636 34.8902 3.95906 35.2552 4.0902 35.6206L4.13792 35.7532H3.36619L3.34252 35.6889C3.28394 35.5302 3.2269 35.3706 3.17219 35.2104C3.12563 35.0742 3.07869 34.9377 3.03096 34.8016ZM5.05632 33.377V35.7532H4.36568V32.7596H6.27115V33.377H5.05632ZM7.15191 34.4896C7.17713 34.6698 7.23571 34.8512 7.36259 34.983C7.51624 35.1425 7.76068 35.1788 7.97098 35.1788C8.10678 35.1788 8.25228 35.1702 8.3842 35.1363C8.4649 35.1156 8.5588 35.0902 8.63446 35.054L8.75241 34.997L8.85445 35.6171L8.79199 35.6507C8.69537 35.7018 8.5588 35.7357 8.45249 35.761C8.27866 35.8024 8.09708 35.8176 7.91821 35.8176C7.69433 35.8176 7.46464 35.7872 7.25667 35.6998C7.07741 35.6245 6.91717 35.5173 6.78835 35.3703C6.66148 35.226 6.57263 35.0579 6.51598 34.8742C6.45506 34.6761 6.42945 34.469 6.42945 34.2619C6.42945 34.0306 6.45933 33.795 6.54236 33.5786C6.6122 33.3965 6.7092 33.2268 6.84422 33.086C6.96916 32.9558 7.11466 32.8551 7.28189 32.7881C7.44291 32.7233 7.61169 32.6898 7.78512 32.6898C8.14558 32.6898 8.47693 32.7951 8.71477 33.0771C8.97318 33.3832 9.03526 33.8255 9.03526 34.2135C9.03526 34.2412 9.03526 34.2689 9.03526 34.2966C9.03526 34.3321 9.03332 34.3676 9.02905 34.4027L9.01858 34.4896H7.15191ZM11.3155 34.5165H10.2396V35.7532H9.54897V32.7596H10.2396V33.8992H11.3155V32.7596H12.0062V35.7532H11.3155V34.5165ZM13.9054 33.377V35.7532H13.2152V33.377H12.3185V32.7596H14.8021V33.377H13.9054ZM16.4119 35.8176C16.1989 35.8176 15.9843 35.786 15.7872 35.7021C15.6111 35.6273 15.4555 35.5192 15.3278 35.3765C15.1994 35.2326 15.1086 35.0645 15.05 34.8808C14.9864 34.6807 14.9604 34.4713 14.9604 34.2619C14.9604 34.0501 14.9895 33.8387 15.059 33.6383C15.1222 33.4554 15.2138 33.2869 15.3403 33.1402C15.4652 32.9963 15.6173 32.886 15.7911 32.8083C15.9774 32.7249 16.1768 32.6898 16.3801 32.6898C16.5101 32.6898 16.6401 32.7015 16.7681 32.7237C16.8973 32.7459 17.0234 32.7818 17.1445 32.8317L17.224 32.8649L17.0603 33.4893L16.9528 33.4374C16.8783 33.4011 16.7976 33.3766 16.7173 33.3586C16.6222 33.3376 16.5252 33.3286 16.4278 33.3286C16.2113 33.3286 16.0119 33.3863 15.8695 33.5568C15.7108 33.7467 15.6724 34.022 15.6724 34.2619C15.6724 34.3921 15.6856 34.524 15.7193 34.6499C15.7473 34.7541 15.7919 34.8516 15.8598 34.9358C15.9246 35.0157 16.0061 35.0739 16.1004 35.114C16.2168 35.1636 16.3502 35.1788 16.4755 35.1788C16.5865 35.1788 16.7002 35.1698 16.8085 35.1441C16.8841 35.1261 16.9679 35.1035 17.0385 35.07L17.1565 35.0142L17.2574 35.6277L17.2019 35.6628C17.158 35.6904 17.1053 35.7096 17.056 35.7248C16.9935 35.7439 16.9291 35.7583 16.8647 35.7704C16.7914 35.784 16.7177 35.795 16.6439 35.8035C16.5667 35.8129 16.4895 35.8176 16.4119 35.8176ZM18.9087 33.377V35.7532H18.2181V33.377H17.3214V32.7596H19.8054V33.377H18.9087ZM22.1958 34.1347C22.282 34.1839 22.36 34.2463 22.4263 34.3239C22.5466 34.4651 22.5854 34.6499 22.5854 34.8317C22.5854 34.9947 22.5571 35.1597 22.4732 35.3016C22.3984 35.4291 22.2952 35.5294 22.1679 35.605C22.0329 35.685 21.8827 35.7333 21.7287 35.7595C21.5583 35.7887 21.3857 35.8016 21.2134 35.8016C21.0171 35.8016 20.8196 35.793 20.6244 35.7712C20.4816 35.7556 20.3327 35.7361 20.1926 35.7021L20.1173 35.6838V32.8076L20.1926 32.7892C20.3327 32.7553 20.4816 32.7362 20.6244 32.7202C20.8196 32.698 21.0171 32.6898 21.2134 32.6898C21.3616 32.6898 21.5095 32.7027 21.6554 32.7292C21.7935 32.7545 21.9289 32.7974 22.0519 32.8661C22.1718 32.9328 22.2699 33.0252 22.3444 33.1414C22.4275 33.2709 22.4581 33.4214 22.4581 33.5739C22.4581 33.7202 22.4232 33.859 22.3394 33.9799C22.2986 34.0392 22.2502 34.0907 22.1958 34.1347ZM25.6572 34.2564C25.6572 34.4721 25.6285 34.6881 25.5559 34.8917C25.4911 35.0742 25.3976 35.2423 25.2688 35.3866C25.1442 35.5266 24.9949 35.6347 24.8238 35.7099C24.6461 35.7876 24.4575 35.823 24.2643 35.823C24.071 35.823 23.8825 35.7876 23.7048 35.7099C23.5337 35.6347 23.3843 35.5266 23.2597 35.3866C23.1309 35.2423 23.0374 35.0742 22.9726 34.8921C22.9001 34.6881 22.8709 34.4725 22.8709 34.2564C22.8709 34.0411 22.9008 33.827 22.9726 33.6238C23.037 33.4409 23.1305 33.2713 23.2597 33.1262C23.3843 32.9862 23.5337 32.8782 23.7048 32.8029C23.8825 32.7253 24.071 32.6898 24.2643 32.6898C24.4575 32.6898 24.6461 32.7253 24.8238 32.8029C24.9949 32.8782 25.1442 32.9862 25.2688 33.1262C25.3984 33.2713 25.4915 33.4405 25.5559 33.6238C25.6277 33.8274 25.6572 34.0415 25.6572 34.2564ZM29.1472 34.5165H28.0713V35.7532H27.3807V32.7596H28.0713V33.8992H29.1472V32.7596H29.8379V35.7532H29.1472V34.5165ZM31.0585 34.4896C31.0834 34.6698 31.142 34.8512 31.2692 34.983C31.4225 35.1425 31.6673 35.1788 31.8776 35.1788C32.0134 35.1788 32.1589 35.1702 32.2908 35.1363C32.3715 35.1156 32.465 35.0898 32.5407 35.054L32.6586 34.997L32.7607 35.6171L32.6982 35.6507C32.6012 35.7018 32.465 35.7361 32.3587 35.761C32.1849 35.8024 32.0029 35.8176 31.8244 35.8176C31.6006 35.8176 31.3709 35.7872 31.1629 35.6998C30.9836 35.6245 30.8234 35.5173 30.6946 35.3703C30.5681 35.2256 30.4792 35.0579 30.4222 34.8742C30.3609 34.6761 30.3357 34.469 30.3357 34.2619C30.3357 34.0306 30.3656 33.795 30.4486 33.5786C30.5184 33.3969 30.6154 33.2268 30.7505 33.086C30.875 32.9558 31.0213 32.8551 31.1885 32.7881C31.3495 32.7233 31.5183 32.6898 31.6917 32.6898C32.0522 32.6898 32.3835 32.7951 32.6214 33.0771C32.8794 33.3832 32.9415 33.8255 32.9415 34.2135C32.9415 34.2412 32.9415 34.2689 32.9415 34.2966C32.9415 34.3325 32.9399 34.3683 32.9353 34.4038L32.9236 34.4896H31.0585ZM33.4587 35.1464C33.5545 34.9994 33.6356 34.843 33.6981 34.6784C33.7652 34.5002 33.8157 34.3161 33.8494 34.1285C33.8851 33.9304 33.9072 33.7295 33.9169 33.5283C33.9282 33.3048 33.9352 33.081 33.9383 32.8571L33.9398 32.7596H35.9442V35.1464H36.3159V36.5325H35.6517V35.7532H33.78V36.5325H33.1157V35.1464H33.4587ZM38.7328 34.1347C38.8189 34.1839 38.8969 34.2463 38.9632 34.3239C39.0835 34.4651 39.1223 34.6499 39.1223 34.8317C39.1223 34.9947 39.094 35.1597 39.0102 35.3016C38.9353 35.4288 38.8321 35.5298 38.7052 35.605C38.5702 35.685 38.42 35.7333 38.266 35.7595C38.0957 35.7887 37.923 35.8016 37.7504 35.8016C37.554 35.8016 37.3569 35.793 37.1614 35.7712C37.0186 35.7556 36.8696 35.7361 36.7295 35.7021L36.6543 35.6838V32.8076L36.7295 32.7892C36.8696 32.7553 37.0186 32.7362 37.1614 32.7202C37.3565 32.698 37.554 32.6898 37.7504 32.6898C37.8986 32.6898 38.0464 32.7027 38.1923 32.7292C38.3308 32.7545 38.4654 32.7974 38.5888 32.8661C38.7087 32.9328 38.8069 33.0252 38.8814 33.1414C38.9644 33.2709 38.9951 33.4214 38.9951 33.5739C38.9951 33.7202 38.9601 33.859 38.8763 33.9799C38.8356 34.0392 38.7871 34.0907 38.7328 34.1347ZM41.403 33.8204C41.3452 33.9 41.2882 33.9799 41.2319 34.0606C41.1023 34.2467 40.9758 34.435 40.8516 34.625C40.7279 34.8153 40.606 35.0072 40.4873 35.2006C40.3853 35.3671 40.284 35.5348 40.1862 35.7041L40.1575 35.7532H39.5619V32.7596H40.2367V34.5173C40.2801 34.4475 40.3236 34.3777 40.3678 34.3083C40.4858 34.1215 40.6076 33.9374 40.7337 33.7564C40.8567 33.579 40.9828 33.4039 41.1128 33.2319C41.2261 33.081 41.3448 32.9328 41.4705 32.7924L41.5 32.7596H42.0773V35.7532H41.403V33.8204ZM45.2822 34.1281C45.3726 34.2182 45.4607 34.3102 45.5476 34.4038C45.6629 34.5282 45.7746 34.6562 45.8828 34.7872C45.9919 34.9198 46.097 35.0559 46.1971 35.1955C46.2918 35.3277 46.3814 35.4639 46.4625 35.6046L46.5479 35.7532H45.7711L45.742 35.7068C45.6632 35.5809 45.5779 35.4588 45.4894 35.3398C45.394 35.2123 45.295 35.0871 45.191 34.9662C45.0925 34.8508 44.9897 34.7381 44.883 34.63C44.8438 34.5903 44.8034 34.5509 44.7619 34.5126V35.7532H44.093V34.5126C44.0515 34.5509 44.0115 34.5903 43.9719 34.63C43.8652 34.7381 43.7628 34.8508 43.6643 34.9662C43.5603 35.0871 43.461 35.2119 43.3655 35.3398C43.277 35.4588 43.1917 35.5809 43.1129 35.7068L43.0838 35.7532H42.3125L42.3978 35.6046C42.4781 35.4646 42.5666 35.3297 42.6605 35.1987C42.7598 35.0598 42.8638 34.9241 42.9725 34.7927C43.0803 34.6616 43.1921 34.5333 43.3073 34.4093C43.3942 34.3157 43.4827 34.2237 43.5731 34.1336C43.5005 34.0513 43.428 33.969 43.3558 33.8867C43.258 33.7752 43.1618 33.6624 43.066 33.5493C42.9732 33.4401 42.8813 33.3306 42.7897 33.221C42.7067 33.1215 42.6248 33.0217 42.5441 32.9207L42.4153 32.7596H43.2153L43.2448 32.797C43.3876 32.978 43.5347 33.1558 43.6833 33.3321C43.8191 33.4932 43.9557 33.6535 44.093 33.8134V32.7596H44.7619V33.8134C44.8993 33.6535 45.0362 33.4932 45.172 33.3321C45.3206 33.1558 45.4677 32.978 45.6105 32.797L45.64 32.7596H46.4322L46.3058 32.9203C46.2274 33.0197 46.1467 33.118 46.0656 33.2151C45.9736 33.3251 45.8817 33.4343 45.7893 33.5435C45.6935 33.657 45.5969 33.7697 45.4987 33.8812C45.4266 33.9635 45.3544 34.0458 45.2822 34.1281ZM48.6186 33.82C48.5608 33.8996 48.5038 33.9799 48.4475 34.0606C48.3179 34.2467 48.1914 34.435 48.0673 34.625C47.9431 34.8153 47.8217 35.0072 47.7026 35.201C47.6001 35.3671 47.4992 35.5348 47.4015 35.7041L47.3728 35.7532H46.7776V32.7596H47.4519V34.5177C47.4954 34.4475 47.5392 34.3777 47.5834 34.3083C47.7014 34.1215 47.8232 33.9378 47.9493 33.7564C48.0723 33.579 48.1984 33.4043 48.328 33.2319C48.4417 33.081 48.56 32.9324 48.6865 32.7924L48.7156 32.7596H49.293V35.7532H48.6186V33.82ZM50.6358 33.9436C50.6157 34.1827 50.5998 34.4222 50.5877 34.662C50.571 34.9939 50.5567 35.3258 50.545 35.6577L50.5416 35.7532H49.8723L49.8757 35.6507C49.8835 35.4213 49.894 35.192 49.9076 34.9627C49.9219 34.7221 49.9382 34.4814 49.9561 34.2408C49.9735 34.0021 49.9925 33.7631 50.0143 33.5244C50.0348 33.2986 50.0577 33.0728 50.0833 32.8473L50.093 32.7596H50.6878L50.7165 32.8072C50.8659 33.054 50.9971 33.3208 51.1197 33.5825C51.2648 33.8925 51.4103 34.2026 51.5554 34.513C51.7009 34.203 51.846 33.8925 51.9915 33.5825C52.1141 33.3212 52.2449 33.054 52.3943 32.8072L52.423 32.7596H53.0224L53.0325 32.8473C53.0585 33.0728 53.0818 33.2986 53.102 33.5244C53.1233 33.7631 53.1431 34.0021 53.1606 34.2408C53.1784 34.4814 53.1939 34.7221 53.2083 34.9627C53.2219 35.192 53.2331 35.4213 53.2405 35.6511L53.2436 35.7532H52.5588L52.5553 35.6577C52.5436 35.3258 52.5293 34.9939 52.5126 34.662C52.501 34.4253 52.485 34.1889 52.4653 33.9526C52.4517 33.9815 52.4377 34.0099 52.4241 34.0388C52.3493 34.1956 52.2763 34.3535 52.2049 34.5123C52.1362 34.6655 52.0679 34.8192 52.0012 34.9736C51.9512 35.0887 51.9011 35.2041 51.8538 35.3203L51.8289 35.382H51.2842L51.2582 35.3227C51.207 35.2045 51.1546 35.0867 51.1022 34.9689C51.0332 34.8137 50.9641 34.6589 50.895 34.5041C50.824 34.3442 50.7515 34.1854 50.6762 34.0279C50.6626 33.9998 50.6494 33.9717 50.6358 33.9436ZM56.4555 34.2564C56.4555 34.4721 56.4267 34.6881 56.3542 34.8917C56.2894 35.0742 56.1955 35.2423 56.0667 35.3866C55.9421 35.5266 55.7927 35.6347 55.6216 35.7099C55.4439 35.7876 55.2558 35.823 55.0625 35.823C54.8689 35.823 54.6807 35.7879 54.5026 35.7099C54.3315 35.6347 54.1825 35.5266 54.058 35.3866C53.9292 35.2423 53.8353 35.0742 53.7705 34.8917C53.6979 34.6881 53.6692 34.4721 53.6692 34.2564C53.6692 34.0415 53.6987 33.8274 53.7705 33.6238C53.8349 33.4405 53.9284 33.2713 54.058 33.1262C54.1825 32.9862 54.3315 32.8782 54.5026 32.8029C54.6807 32.7249 54.8689 32.6898 55.0625 32.6898C55.2558 32.6898 55.4439 32.7253 55.6216 32.8029C55.7927 32.8782 55.9421 32.9862 56.0667 33.1262C56.1963 33.2713 56.2898 33.4405 56.3542 33.6238C56.426 33.8274 56.4555 34.0415 56.4555 34.2564ZM58.2507 35.8176C58.0377 35.8176 57.8231 35.786 57.626 35.7021C57.4503 35.6273 57.2943 35.5192 57.1667 35.3765C57.0382 35.2326 56.9474 35.0645 56.8888 34.8808C56.8252 34.6807 56.7992 34.4713 56.7992 34.2619C56.7992 34.0501 56.8283 33.8387 56.8978 33.6383C56.961 33.4554 57.0526 33.2869 57.1791 33.1402C57.304 32.9963 57.4561 32.886 57.6299 32.8083C57.8162 32.7253 58.0156 32.6898 58.2189 32.6898C58.3489 32.6898 58.4789 32.7015 58.6069 32.7237C58.7361 32.7459 58.8622 32.7818 58.9837 32.8317L59.0632 32.8649L58.8991 33.4893L58.7916 33.4374C58.7171 33.4011 58.6364 33.3766 58.5561 33.3586C58.461 33.3376 58.364 33.3286 58.2666 33.3286C58.0501 33.3286 57.8507 33.3863 57.7079 33.5568C57.5496 33.7467 57.5112 34.0224 57.5112 34.2619C57.5112 34.3921 57.5244 34.524 57.5581 34.6499C57.5861 34.7541 57.6307 34.8516 57.6986 34.9358C57.7634 35.0157 57.8449 35.0739 57.9392 35.114C58.0556 35.1636 58.189 35.1788 58.3144 35.1788C58.4257 35.1788 58.539 35.1698 58.6477 35.1441C58.7229 35.1261 58.8067 35.1035 58.8773 35.07L58.9953 35.0142L59.0962 35.6277L59.0407 35.6628C58.9972 35.6904 58.9445 35.7096 58.8952 35.7248C58.8327 35.7439 58.7683 35.7583 58.7039 35.7704C58.6306 35.784 58.5569 35.795 58.4828 35.8035C58.4055 35.8129 58.3283 35.8176 58.2507 35.8176ZM60.7475 33.377V35.7532H60.0569V33.377H59.1606V32.7596H61.6442V33.377H60.7475ZM63.7972 33.8204C63.7394 33.9 63.6827 33.9799 63.6265 34.0606C63.4969 34.2467 63.37 34.435 63.2458 34.625C63.1217 34.8153 63.0006 35.0072 62.8815 35.201C62.7791 35.3671 62.6782 35.5348 62.5804 35.7041L62.5517 35.7532H61.9561V32.7596H62.6309V34.5177C62.6743 34.4475 62.7182 34.3777 62.7624 34.3083C62.8803 34.1215 63.0022 33.9378 63.1283 33.7564C63.2509 33.579 63.377 33.4039 63.5066 33.2319C63.6203 33.081 63.739 32.9328 63.8655 32.7924L63.8946 32.7596H64.4719V35.7532H63.7972V33.8204ZM2.81097 34.1733C2.71668 33.9156 2.62123 33.6585 2.52346 33.4023C2.44198 33.1894 2.35662 32.9776 2.2666 32.7682C2.17464 32.9772 2.08851 33.189 2.00703 33.4023C1.90964 33.6582 1.81497 33.9152 1.72301 34.1733H2.81097ZM8.32057 33.8886C8.31048 33.7455 8.26935 33.6078 8.17778 33.4928C8.07612 33.3649 7.94149 33.3126 7.78008 33.3126C7.69162 33.3126 7.60432 33.3278 7.52517 33.3688C7.45222 33.4066 7.3882 33.4561 7.33543 33.5193C7.2815 33.5837 7.24076 33.657 7.21244 33.7362C7.19459 33.7861 7.17984 33.8372 7.16898 33.8886H8.32057ZM20.7975 33.3072V33.9046H21.2239C21.3065 33.9046 21.3896 33.9 21.4714 33.8871C21.5316 33.8777 21.5925 33.8606 21.6464 33.8309C21.6883 33.8079 21.7225 33.7763 21.7481 33.7358C21.776 33.6921 21.7834 33.6355 21.7834 33.5844C21.7834 33.5361 21.7756 33.4823 21.7434 33.4444C21.7089 33.4039 21.6643 33.3762 21.6154 33.3571C21.549 33.3309 21.4784 33.3165 21.4078 33.3095C21.324 33.3005 21.2394 33.2962 21.1552 33.2962C21.0745 33.2962 20.9934 33.2982 20.9127 33.3017C20.8743 33.3033 20.8359 33.3052 20.7975 33.3072ZM20.7975 35.1897C20.7979 35.1897 20.7979 35.1897 20.7983 35.1897C20.8405 35.1936 20.8832 35.1959 20.9255 35.1975C20.9775 35.1994 21.0295 35.201 21.0815 35.2029C21.1327 35.2049 21.1835 35.2057 21.2348 35.2057C21.3283 35.2057 21.4218 35.199 21.5145 35.185C21.5878 35.1737 21.6619 35.1542 21.7283 35.1199C21.7791 35.0934 21.8237 35.0571 21.8567 35.0095C21.8909 34.9596 21.9002 34.896 21.9002 34.8367C21.9002 34.779 21.8909 34.7166 21.8594 34.6671C21.8303 34.6203 21.7912 34.5848 21.7434 34.5579C21.6841 34.5243 21.6169 34.5048 21.5502 34.4939C21.4637 34.4795 21.3756 34.4736 21.2879 34.4736H20.7975V35.1897ZM24.9456 34.2564C24.9456 34.017 24.9037 33.7615 24.7562 33.5665C24.6321 33.4023 24.4683 33.3286 24.2643 33.3286C24.0602 33.3286 23.8964 33.4023 23.7723 33.5665C23.6248 33.7615 23.5829 34.017 23.5829 34.2564C23.5829 34.4955 23.6248 34.7513 23.7723 34.9463C23.8964 35.1105 24.0602 35.1838 24.2643 35.1838C24.4683 35.1838 24.6321 35.1105 24.7562 34.9463C24.9037 34.7513 24.9456 34.4955 24.9456 34.2564ZM32.2272 33.8886C32.2167 33.7455 32.1756 33.6082 32.084 33.4928C31.9824 33.3645 31.8477 33.3126 31.6863 33.3126C31.5982 33.3126 31.5105 33.3278 31.4318 33.3688C31.3588 33.4066 31.2948 33.4561 31.2417 33.5193C31.1877 33.5837 31.1474 33.657 31.1187 33.7362C31.1008 33.7861 31.0861 33.8372 31.0752 33.8886H32.2272ZM35.254 35.1464V33.377H34.5835C34.5792 33.5162 34.5711 33.6554 34.5594 33.7943C34.5451 33.9674 34.5214 34.1394 34.4888 34.3102C34.4562 34.4818 34.4093 34.6507 34.3492 34.8149C34.3076 34.9284 34.2591 35.0391 34.204 35.1464H35.254ZM37.3344 33.3072V33.9046H37.7608C37.8435 33.9046 37.9269 33.9 38.0088 33.8871C38.0689 33.8777 38.1294 33.8606 38.1834 33.8309C38.2253 33.8079 38.2598 33.7767 38.285 33.7362C38.3126 33.6921 38.3203 33.6355 38.3203 33.5844C38.3203 33.5361 38.3122 33.4823 38.28 33.444C38.2458 33.4039 38.2012 33.3762 38.1523 33.3571C38.086 33.3309 38.0154 33.3165 37.9447 33.3095C37.8609 33.3005 37.7764 33.2962 37.6922 33.2962C37.6115 33.2962 37.5304 33.2982 37.4497 33.3017C37.4112 33.3033 37.3728 33.3052 37.3344 33.3072ZM37.3344 35.1897C37.3348 35.1897 37.3348 35.1897 37.3352 35.1897C37.3775 35.1936 37.4202 35.1959 37.4625 35.1975C37.5145 35.1994 37.5665 35.201 37.6184 35.2029C37.6697 35.2049 37.7205 35.2057 37.7717 35.2057C37.8652 35.2057 37.9587 35.199 38.0514 35.185C38.1248 35.1737 38.1989 35.1542 38.2652 35.1199C38.3165 35.0934 38.3607 35.0575 38.3937 35.0095C38.4278 34.9596 38.4371 34.896 38.4371 34.8367C38.4371 34.779 38.4278 34.7166 38.3968 34.6667C38.3677 34.6203 38.3285 34.5848 38.2808 34.5579C38.2214 34.5243 38.1543 34.5048 38.0875 34.4939C38.0006 34.4795 37.9125 34.4736 37.8249 34.4736H37.3344V35.1897ZM55.7435 34.2564C55.7435 34.017 55.702 33.7615 55.5541 33.5665C55.43 33.4027 55.2666 33.3286 55.0625 33.3286C54.8584 33.3286 54.6943 33.4023 54.5702 33.5665C54.4227 33.7615 54.3808 34.017 54.3808 34.2564C54.3808 34.4955 54.4227 34.7513 54.5702 34.9463C54.6943 35.1105 54.8584 35.1838 55.0625 35.1838C55.2666 35.1838 55.43 35.1101 55.5541 34.9463C55.702 34.7513 55.7435 34.4955 55.7435 34.2564Z" fill="#FEFEFE"/>
</svg>
